<svg id="Layer_1" data-name="Layer 1" xmlns="http://www.w3.org/2000/svg" viewBox="0 0 351.69 115.1"><defs><style>.cls-1,.cls-2{fill:#24292e;}.cls-1{fill-rule:evenodd;}.cls-2{font-size:100px;font-family:TitilliumWeb-Bold, Titillium Web;font-weight:700;}.cls-3{letter-spacing:-0.01em;}</style></defs><path class="cls-1" d="M38.19,2.17c2.11,4.24,5.45,9,10.85,11.49,8.6,4,18.93.8,19.28,2.42.3,1.38-7.35,2.82-8.74,8.23A7.45,7.45,0,0,0,59.64,28c2.23,9.71-8.31,55.55-8.81,52C49.12,67.7,47.8,54.72,47,41.11q-.33-6-.51-11.92Q41,56.72,35.48,84.25c.75,23.54-24,25-30,18.72C-.78,96.5,13.92,75.05,32.17,82.1Z" transform="translate(-4 0.8)"/><text class="cls-2" transform="translate(33.79 84)">Musi<tspan class="cls-3" x="214.1" y="0">k</tspan><tspan x="264.7" y="0">o</tspan></text></svg>